# xmcd CD database file
#
# Track frame offsets:
#	150
#	13105
#	25553
#	44226
#	60544
#	75317
#	86731
#	107799
#	121878
#	132365
#	151333
#	160574
#	176733
#	196896
#
# Disc length: 2788 seconds
#
# Revision: 0
# Processed by: cddbd v1.5.2PL0 Copyright (c) Steve Scherf et al.
# Submitted via: CDex 2.12
#
DISCID=ab0ae20e
DTITLE=Sasha Dobson - Modern Romance
DYEAR=2006
DGENRE=Jazz
TTITLE0=Without You
TTITLE1=If Not for Dreams
TTITLE2=Follow through
TTITLE3=Modern Romance
TTITLE4=Been Here Before
TTITLE5=Cold to Colder
TTITLE6=Four Leaf Clover
TTITLE7=Crescent
TTITLE8=Spring Is Just around the Corner
TTITLE9=Young and Free
TTITLE10=End of Autumn
TTITLE11=I Never Changed My Mind
TTITLE12=Mood Indigo
TTITLE13=While the Music Lasts
EXTD=YEAR: 2006
EXTT0=
EXTT1=
EXTT2=
EXTT3=
EXTT4=
EXTT5=
EXTT6=
EXTT7=
EXTT8=
EXTT9=
EXTT10=
EXTT11=
EXTT12=
EXTT13=
PLAYORDER=
